<svg width="24" height="30" viewBox="0 0 24 30" fill="none" xmlns="http://www.w3.org/2000/svg">
<path d="M24 12L24 27C24 28.665 22.665 30 21 30L18 30L18 24.885L14.115 21L8.115 21L5.115 18L3.02789e-06 18L3.29016e-06 12L5.115 12L8.115 9L15.885 9L18.885 12L24 12ZM12.885 24L9 24L9 30L15 30L15 26.115L12.885 24ZM18 6.885L20.115 9L24 9L24 3C24 1.335 22.665 -5.83547e-08 21 -1.31134e-07L18 -2.62268e-07L18 6.885ZM9 6L15 6L15 -3.93402e-07L9 -6.55671e-07L9 6ZM3.885 9L6 6.885L6 -7.86805e-07L3 -9.17939e-07C1.335 -9.90718e-07 3.75634e-06 1.335 3.68356e-06 3L3.42129e-06 9L3.885 9ZM6 23.115L3.885 21L2.89676e-06 21L2.63449e-06 27C2.56171e-06 28.665 1.335 30 3 30L6 30L6 23.115Z" fill="#005166"/>
</svg>
