<svg width="24" height="19.2" viewBox="0 0 31 24" fill="none" xmlns="http://www.w3.org/2000/svg">
<path d="M30.5 9V19.5C30.5 20.6935 30.0259 21.8381 29.182 22.682C28.3381 23.5259 27.1935 24 26 24H5C3.80653 24 2.66193 23.5259 1.81802 22.682C0.974106 21.8381 0.5 20.6935 0.5 19.5V9H30.5ZM24.5 15H20C19.6022 15 19.2206 15.158 18.9393 15.4393C18.658 15.7206 18.5 16.1022 18.5 16.5C18.5 16.8978 18.658 17.2794 18.9393 17.5607C19.2206 17.842 19.6022 18 20 18H24.5C24.8978 18 25.2794 17.842 25.5607 17.5607C25.842 17.2794 26 16.8978 26 16.5C26 16.1022 25.842 15.7206 25.5607 15.4393C25.2794 15.158 24.8978 15 24.5 15ZM26 0C27.1935 0 28.3381 0.474106 29.182 1.31802C30.0259 2.16193 30.5 3.30653 30.5 4.5V6H0.5V4.5C0.5 3.30653 0.974106 2.16193 1.81802 1.31802C2.66193 0.474106 3.80653 0 5 0H26Z" fill="#005166"/>
</svg>
