<svg width="31" height="11" viewBox="0 0 31 11" fill="none" xmlns="http://www.w3.org/2000/svg">
<path fill-rule="evenodd" clip-rule="evenodd" d="M10.6775 5.33866C10.6775 8.28712 8.28731 10.6773 5.33885 10.6773C2.39025 10.6773 0 8.28712 0 5.33866C0 2.3902 2.39025 8.15803e-06 5.33885 8.15803e-06C8.28731 8.15803e-06 10.6775 2.3902 10.6775 5.33866Z" fill="#ED342B"/>
<path fill-rule="evenodd" clip-rule="evenodd" d="M5.33878 7.62548C4.14463 4.91866 3.26905 2.38998 3.26905 2.38998H1.43842C1.43842 2.38998 2.55262 5.63555 4.62229 9.69434H6.05528C8.12494 5.63555 9.23908 2.38998 9.23908 2.38998L7.40845 2.38998C7.40845 2.38998 6.53294 4.91866 5.33878 7.62548Z" fill="#FEFEFE"/>
<path fill-rule="evenodd" clip-rule="evenodd" d="M28.3305 5.06023C27.2956 5.06023 27.2161 6.17464 27.2161 6.17464L29.4446 6.17464C29.4446 6.17464 29.3651 5.06023 28.3305 5.06023ZM30.7979 7.28885L27.2161 7.28885C27.2161 7.28885 27.2956 8.48294 28.8877 8.48294C29.6835 8.48294 30.4795 8.24391 30.4795 8.24391L30.6388 9.5174C30.6388 9.5174 29.8428 9.83598 28.7284 9.83598C27.1365 9.83598 25.7038 9.03994 25.7038 6.81132C25.7038 5.06023 26.8182 3.94589 28.4101 3.94589C30.7979 3.94589 30.957 6.33373 30.7979 7.28885ZM18.6187 5.40815L18.8651 4.09395C18.8651 4.09395 16.9621 3.51649 15.4153 4.58663V9.84346H17.058V5.57227C17.7151 5.07965 18.6187 5.40815 18.6187 5.40815ZM11.7714 5.06023C10.7367 5.06023 10.6572 6.17464 10.6572 6.17464H12.8857C12.8857 6.17464 12.8063 5.06023 11.7714 5.06023ZM14.2388 7.28885H10.6572C10.6572 7.28885 10.7367 8.48294 12.3286 8.48294C13.1244 8.48294 13.9204 8.24391 13.9204 8.24391L14.0797 9.5174C14.0797 9.5174 13.2837 9.83598 12.1693 9.83598C10.5774 9.83598 9.14465 9.03994 9.14465 6.81132C9.14465 5.06023 10.2591 3.94589 11.8509 3.94589C14.2388 3.94589 14.3979 6.33373 14.2388 7.28885ZM22.6276 7.83434C21.7934 5.83228 21.3765 3.94685 21.3765 3.94685L19.7086 3.94705C19.7086 3.94705 20.5427 7.16695 21.9606 9.83499H23.2945C24.7125 7.16695 25.5466 3.94752 25.5466 3.94752H23.8786C23.8786 3.94752 23.4617 5.83228 22.6276 7.83434Z" fill="#03435F"/>
</svg>
